<svg width="80" height="80" viewBox="0 0 80 80" fill="none" xmlns="http://www.w3.org/2000/svg">
<g clip-path="url(#clip0_79_243)">
<mask id="mask0_79_243" style="mask-type:luminance" maskUnits="userSpaceOnUse" x="0" y="0" width="80" height="80">
<path d="M80 0H0V80H80V0Z" fill="white"/>
</mask>
<g mask="url(#mask0_79_243)">
<path d="M50 0H30C13.4315 0 0 13.4315 0 30V50C0 66.5685 13.4315 80 30 80H50C66.5685 80 80 66.5685 80 50V30C80 13.4315 66.5685 0 50 0Z" fill="#E6195E"/>
<path d="M63.7494 40C63.7494 52.4263 53.6757 62.5 41.2493 62.5C37.1507 62.5 33.3078 61.404 29.998 59.489L17.5 61.25L21.7606 51.252C19.8455 47.942 18.7494 44.099 18.7494 40C18.7494 27.5736 28.823 17.5 41.2493 17.5C53.6757 17.5 63.7494 27.5736 63.7494 40Z" stroke="white" stroke-width="3" stroke-linejoin="round"/>
<path d="M33.25 40C33.25 41.1045 32.3546 42 31.25 42C30.1454 42 29.25 41.1045 29.25 40C29.25 38.8955 30.1454 38 31.25 38C32.3546 38 33.25 38.8955 33.25 40Z" fill="white" stroke="white"/>
<path d="M43.25 40C43.25 41.1045 42.3545 42 41.25 42C40.1455 42 39.25 41.1045 39.25 40C39.25 38.8955 40.1455 38 41.25 38C42.3545 38 43.25 38.8955 43.25 40Z" fill="white" stroke="white"/>
<path d="M53.25 40C53.25 41.1045 52.3545 42 51.25 42C50.1455 42 49.25 41.1045 49.25 40C49.25 38.8955 50.1455 38 51.25 38C52.3545 38 53.25 38.8955 53.25 40Z" fill="white" stroke="white"/>
</g>
</g>
<defs>
<clipPath id="clip0_79_243">
<rect width="80" height="80" fill="white"/>
</clipPath>
</defs>
</svg>
