<svg width="80" height="80" viewBox="0 0 80 80" fill="none" xmlns="http://www.w3.org/2000/svg">
<g clip-path="url(#clip0_79_231)">
<mask id="mask0_79_231" style="mask-type:luminance" maskUnits="userSpaceOnUse" x="0" y="0" width="80" height="80">
<path d="M80 0H0V80H80V0Z" fill="white"/>
</mask>
<g mask="url(#mask0_79_231)">
<path d="M50 0H30C13.4315 0 0 13.4315 0 30V50C0 66.5685 13.4315 80 30 80H50C66.5685 80 80 66.5685 80 50V30C80 13.4315 66.5685 0 50 0Z" fill="#E6195E"/>
<path d="M55 60H25C19.4772 60 15 55.523 15 50V30C15 24.4772 19.4772 20 25 20H55C60.523 20 65 24.4772 65 30V50C65 55.523 60.523 60 55 60Z" stroke="white" stroke-width="3" stroke-linecap="round" stroke-linejoin="round"/>
<path d="M16 26.25L36.5856 39.9739C38.5636 41.2923 41.4364 41.2923 43.4144 39.9739L64 26.25" stroke="white" stroke-width="3" stroke-linecap="round" stroke-linejoin="round"/>
</g>
</g>
<defs>
<clipPath id="clip0_79_231">
<rect width="80" height="80" fill="white"/>
</clipPath>
</defs>
</svg>
