<svg width="80" height="80" viewBox="0 0 80 80" fill="none" xmlns="http://www.w3.org/2000/svg">
<path d="M41.8672 36.2891L39.8271 28.2711C39.4982 26.9808 37.6673 26.9808 37.3384 28.2711L35.2983 36.2891C35.1833 36.7376 34.8383 37.0895 34.3921 37.2114L25.5162 39.6379C24.2305 39.9898 24.2673 41.8253 25.5646 42.1266L33.7389 44.0241C34.2012 44.1322 34.5692 44.4864 34.6888 44.9464L37.3384 54.9838C37.6742 56.258 39.4844 56.258 39.8202 54.9838L42.4698 44.9464C42.5917 44.4864 42.9574 44.1322 43.4197 44.0241L51.5941 42.1266C52.8913 41.8253 52.9281 39.9898 51.6424 39.6379L42.7665 37.2114C42.3272 37.0872 41.9822 36.7353 41.8672 36.2891Z" fill="url(#paint0_linear_79_62)"/>
<path d="M51.042 27.595L50.2255 24.3864C50.0944 23.8712 49.3607 23.8712 49.2296 24.3864L48.4131 27.595C48.3671 27.7744 48.2291 27.9147 48.052 27.963L44.5007 28.9336C43.9855 29.0739 44.0016 29.8076 44.5191 29.9295L47.7898 30.6885C47.9761 30.7322 48.121 30.8725 48.1693 31.0588L49.2296 35.0747C49.3653 35.5853 50.0875 35.5853 50.2232 35.0747L51.2835 31.0588C51.3318 30.8748 51.479 30.7322 51.663 30.6885L54.9337 29.9295C55.4535 29.8099 55.4673 29.0739 54.9521 28.9336L51.4008 27.963C51.226 27.9147 51.088 27.7744 51.042 27.595Z" fill="url(#paint1_linear_79_62)"/>
<defs>
<linearGradient id="paint0_linear_79_62" x1="38.5793" y1="27.3034" x2="38.5793" y2="55.9394" gradientUnits="userSpaceOnUse">
<stop offset="0.304" stop-color="#E5195D"/>
<stop offset="0.804" stop-color="#F5A3BE"/>
</linearGradient>
<linearGradient id="paint1_linear_79_62" x1="49.7268" y1="24" x2="49.7268" y2="35.4576" gradientUnits="userSpaceOnUse">
<stop offset="0.304" stop-color="#E5195D"/>
<stop offset="0.804" stop-color="#F5A3BE"/>
</linearGradient>
</defs>
</svg>
