<svg width="24" height="24" viewBox="0 0 24 24" fill="none" xmlns="http://www.w3.org/2000/svg">
<rect width="24" height="24" rx="9" fill="white"/>
<path fill-rule="evenodd" clip-rule="evenodd" d="M18.176 5.85022C16.688 4.35982 14.7056 3.53902 12.596 3.53662C8.24957 3.53662 4.70958 7.07422 4.70958 11.423C4.70958 12.8126 5.07198 14.171 5.76318 15.3662L4.64478 19.4534L8.82557 18.3566C9.97757 18.9854 11.2736 19.3166 12.5936 19.3166H12.596C16.9424 19.3166 20.48 15.779 20.4824 11.4302C20.4848 9.32302 19.6664 7.34062 18.176 5.85022ZM12.5984 17.9846H12.596C11.42 17.9846 10.2656 17.6678 9.25997 17.0702L9.01998 16.9286L6.53838 17.579L7.20078 15.1598L7.04478 14.9126C6.38958 13.8686 6.04158 12.6638 6.04158 11.423C6.04398 7.80862 8.98398 4.86862 12.6008 4.86862C14.3528 4.86862 15.9968 5.55262 17.2352 6.79102C18.4736 8.02942 19.1552 9.67822 19.1528 11.4278C19.1528 15.0446 16.2104 17.9846 12.5984 17.9846ZM16.1936 13.0742C15.9968 12.9758 15.0272 12.4982 14.8472 12.4334C14.6672 12.3686 14.5352 12.335 14.4032 12.5318C14.2712 12.7286 13.8944 13.1726 13.7792 13.3046C13.664 13.4366 13.5488 13.4534 13.352 13.355C13.1552 13.2566 12.5192 13.0478 11.768 12.3758C11.1824 11.8526 10.7864 11.207 10.6712 11.0102C10.556 10.8134 10.6592 10.7054 10.7576 10.607C10.8464 10.5182 10.9544 10.3766 11.0528 10.2614C11.1512 10.1462 11.1848 10.0646 11.2496 9.93262C11.3144 9.80062 11.2832 9.68542 11.2328 9.58702C11.1824 9.48862 10.7888 8.51902 10.6256 8.12302C10.4648 7.73902 10.304 7.79182 10.1816 7.78462C10.0664 7.77982 9.93438 7.77742 9.80478 7.77742C9.67278 7.77742 9.45918 7.82782 9.27918 8.02462C9.09918 8.22142 8.59038 8.69902 8.59038 9.66862C8.59038 10.6382 9.29598 11.5766 9.39438 11.7062C9.49278 11.8382 10.784 13.8278 12.7616 14.6822C13.232 14.8862 13.5992 15.0062 13.8848 15.0974C14.3576 15.2486 14.7872 15.227 15.1256 15.1766C15.5048 15.119 16.292 14.699 16.4552 14.2406C16.6184 13.7798 16.6184 13.3862 16.5704 13.3046C16.5224 13.223 16.3904 13.175 16.1936 13.0742Z" fill="black"/>
</svg>
